<svg width="117" height="51" viewBox="0 0 117 51" fill="none" xmlns="http://www.w3.org/2000/svg">
<path d="M97.0537 8.78244L93.4323 7.18902C92.2734 6.68202 91.9113 6.31988 91.9113 5.01618C91.9113 3.20547 92.5631 2.84333 94.1566 2.77091C94.1566 2.77091 95.1706 2.69848 95.8224 2.77091C95.8224 2.77091 97.4883 2.84333 97.9952 2.84333C98.1292 2.84333 98.2532 2.85324 98.3636 2.86206C98.5519 2.87709 98.7007 2.88898 98.792 2.84333C99.1541 2.77091 99.299 2.69848 99.2265 1.68448C99.1541 0.742918 98.8644 0.525634 98.285 0.453206C97.9952 0.380778 97.0537 0.30835 96.9088 0.30835H94.229C91.7664 0.30835 89.2314 0.887775 89.2314 5.01618C89.2314 7.62359 90.173 8.49273 92.0561 9.36186L95.6776 10.9553C96.8364 11.4623 97.1261 11.9693 97.1261 13.4178C97.1261 15.301 96.0397 16.0252 93.4323 16.0252C91.9837 16.0252 90.8973 15.808 90.173 15.6631C90.0593 15.6404 89.96 15.6176 89.8704 15.5972C89.6745 15.5524 89.5254 15.5183 89.3763 15.5183C89.0142 15.5183 88.8693 15.5907 88.8693 16.6047C88.8693 17.5462 89.0866 17.7635 89.666 17.9084C90.7524 18.1981 92.4183 18.4154 93.9393 18.4154C97.9952 18.4154 99.8784 16.6771 99.8784 13.2006C99.8059 10.8104 99.0817 9.65158 97.0537 8.78244Z" fill="white"/>
<path d="M46.354 5.66803C46.4264 0.887779 44.5433 0.380782 40.5597 0.380782H35.2C35.0552 0.380782 34.9103 0.45321 34.9103 0.598066V2.55363C34.9828 2.62605 35.0552 2.69848 35.1276 2.69848H40.5597C42.9499 2.77091 43.5293 3.35033 43.5293 5.81289C43.5293 8.71001 42.805 9.50672 39.9079 9.50672H35.1276C34.9828 9.50672 34.8379 9.65158 34.8379 9.72401V17.9808C34.8379 18.1257 34.9828 18.2705 35.0552 18.2705H37.3005C37.4453 18.2705 37.5902 18.1981 37.5902 18.0532V11.6796H39.763C42.2256 11.6796 43.819 11.245 44.833 10.3759C45.9194 9.4343 46.354 7.9133 46.354 5.66803Z" fill="white"/>
<path d="M10.5745 15.8804C10.6469 15.8804 10.7918 16.0252 10.7918 16.1701H10.7194V18.1257C10.7194 18.2705 10.5745 18.3429 10.4296 18.3429H0.217284C0.144856 18.3429 0 18.1981 0 18.0532V0.74292C0 0.598064 0.144856 0.525636 0.289712 0.525636H10.2848C10.4296 0.525636 10.5021 0.670492 10.5021 0.815349V2.77091C10.5021 2.91576 10.3572 2.98819 10.2124 2.98819H2.8247V7.76845H8.61895C8.69137 7.76845 8.83623 7.9133 8.83623 8.05816V9.94129C8.83623 10.0861 8.69137 10.1586 8.54652 10.1586H2.8247V15.8804H10.5745Z" fill="white"/>
<path d="M116.827 16.1701C116.827 16.0252 116.682 15.8804 116.609 15.8804H108.859V10.1586H114.581C114.726 10.1586 114.871 10.0861 114.871 9.94129V8.05816C114.871 7.9133 114.726 7.76845 114.654 7.76845H108.859V2.98819H116.247C116.392 2.98819 116.537 2.91576 116.537 2.77091V0.815349C116.537 0.670492 116.392 0.525636 116.32 0.525636H106.469C106.324 0.525636 106.18 0.598064 106.18 0.74292V18.0532C106.18 18.1981 106.324 18.3429 106.397 18.3429H116.609C116.754 18.3429 116.899 18.2705 116.899 18.1257V16.1701H116.827Z" fill="white"/>
<path d="M82.4956 0.887777C82.4956 0.74292 82.3508 0.598064 82.2783 0.598064H80.0331C79.8882 0.598064 79.7434 0.670492 79.7434 0.815349V13.78H79.4537L73.8043 1.39477C73.8043 1.35856 73.7861 1.32235 73.768 1.28613C73.7499 1.24992 73.7318 1.2137 73.7318 1.17749C73.5145 0.670492 73.4421 0.598064 72.573 0.525636H70.3277C70.1829 0.525636 70.038 0.598064 70.038 0.74292V17.9084C70.038 18.0532 70.1829 18.1981 70.2553 18.1981H72.5005C72.6454 18.1981 72.7903 18.1257 72.7903 17.9808V5.08861H73.08L78.8742 17.4738C79.1639 18.0532 79.3812 18.1981 79.8882 18.2705H82.2059C82.3508 18.2705 82.4956 18.1981 82.4956 18.0532V0.887777Z" fill="white"/>
<path d="M29.0437 0.74292C29.1161 0.887777 29.1161 1.10506 29.0437 1.24992C29.0051 1.28852 27.0738 4.51587 24.8287 8.26765L24.8277 8.26933L24.8271 8.27037C22.86 11.5575 20.6524 15.2466 19.2659 17.5462C19.1934 17.7635 19.121 17.836 19.121 17.836L18.9037 18.1981C18.8313 18.2705 18.7589 18.3429 18.6864 18.3429H16.2963C16.1515 18.3429 16.0066 18.2705 15.9342 18.1257C15.8617 17.9808 15.8617 17.7635 15.9342 17.6187C15.9769 17.6187 16.0197 17.543 16.122 17.3618C16.193 17.236 16.2928 17.0594 16.4412 16.822V16.7495C16.5136 16.7495 16.5136 16.6771 16.5136 16.6771L21.149 9.14458L16.8757 2.19148C16.7651 2.08082 16.6966 1.92776 16.6382 1.79715C16.6202 1.75683 16.6031 1.71864 16.586 1.68449C16.3687 1.32235 16.2963 1.24992 16.2963 1.24992C16.2239 1.10506 16.2239 0.887777 16.2963 0.74292C16.3687 0.598064 16.5136 0.525636 16.6585 0.525636H19.0486C19.121 0.525636 19.1934 0.598064 19.2659 0.670492L19.4832 1.03263C19.5556 1.10506 19.628 1.17749 19.7729 1.17749L22.7424 6.46474H22.8873L25.6395 1.61206L25.712 1.4672C25.7844 1.32235 25.8568 1.17749 25.9293 1.10506V1.03263L26.1465 0.670492C26.219 0.598064 26.2914 0.525636 26.3638 0.525636H28.6815C28.8264 0.525636 28.9712 0.598064 29.0437 0.74292Z" fill="white"/>
<path d="M26.726 18.2705C26.5811 18.2705 26.5087 18.2705 26.5087 18.1257L26.2914 17.7635C26.2914 17.7635 25.5671 16.4598 25.3498 16.0977L23.684 13.2006L25.205 10.738L28.4643 16.0253C28.8988 16.7495 29.4058 17.5462 29.4058 17.5462C29.4782 17.6911 29.4782 17.9084 29.4058 18.0532C29.3334 18.1981 29.1885 18.2705 29.0437 18.2705H26.726Z" fill="white"/>
<path d="M64.553 18.0663C64.544 18.0809 64.5334 18.098 64.5334 18.1257C64.5334 18.1981 64.461 18.2705 64.3162 18.3429H55.1902C55.1178 18.3429 54.9729 18.1981 54.9729 18.0532V17.9808L55.1902 17.0392V16.7495L55.4799 15.7355C55.4799 15.6631 55.5524 15.5907 55.6248 15.5907H61.0569L59.7532 10.9553L57.5079 2.77091H57.0734L54.8281 10.9553L52.8725 18.0532C52.8725 18.1257 52.8001 18.1981 52.7277 18.1981H50.1927C50.1203 18.1981 50.0478 18.1257 49.9754 18.0532V17.9084L50.1927 17.1117C50.1927 17.0817 50.2051 17.0517 50.2197 17.0165C50.2403 16.9668 50.2651 16.9068 50.2651 16.822L54.3211 2.77091L54.9005 0.887777L54.9729 0.670492C54.9729 0.598064 55.0454 0.525636 55.1902 0.525636H59.3911C59.4635 0.525636 59.6083 0.598064 59.6083 0.74292L59.7532 1.17749C59.7532 1.17749 59.8256 1.32235 59.898 1.61206C60.1878 2.62605 60.9845 5.45075 61.5639 7.55116L64.5334 17.7635V17.9808C64.5782 18.0256 64.5676 18.0427 64.553 18.0663Z" fill="white"/>
<path d="M108.508 34.4988L107.646 35.3607C106.784 34.6219 106.39 34.3756 105.701 34.1048C105.061 33.8585 104.273 33.7354 103.46 33.7354C100.874 33.7354 99.3229 35.0898 99.3229 37.3553C99.3229 38.365 99.6431 39.153 100.234 39.6455C100.899 40.1873 101.835 40.5813 102.844 40.729L104.741 41.0245C106.366 41.2708 107.129 41.5663 107.868 42.1819C108.878 43.0192 109.395 44.2012 109.395 45.6049C109.395 48.6092 107.105 50.4315 103.288 50.4315C102.155 50.4315 101.047 50.2345 100.136 49.8651C99.2244 49.4711 98.7073 49.1264 97.6484 48.1167L98.5842 47.1809C99.5938 48.1413 100.062 48.4861 100.874 48.8062C101.613 49.1017 102.426 49.2495 103.435 49.2495C106.366 49.2495 108.065 47.9197 108.065 45.6049C108.065 44.5706 107.745 43.7334 107.105 43.167C106.538 42.6498 105.996 42.4528 104.568 42.2312L102.524 41.9111C99.5692 41.4432 98.0178 39.8918 98.0178 37.4046C98.0178 34.4249 100.111 32.6026 103.583 32.6026C104.494 32.6026 105.405 32.7257 106.169 33.0212C106.981 33.3167 107.474 33.6369 108.508 34.4988Z" fill="white"/>
<path fill-rule="evenodd" clip-rule="evenodd" d="M15.8009 40.4582C15.4069 40.8029 15.136 40.9753 14.3973 41.2708C15.2591 41.6156 15.5793 41.8126 16.0225 42.2066C16.9337 43.0438 17.4016 44.1766 17.4016 45.5556C17.4016 48.5107 15.4808 50.2838 12.2548 50.2838H5.60593V32.7504H12.0578C15.0868 32.7504 17.1307 34.5726 17.1307 37.2815C17.1307 38.562 16.6628 39.6455 15.8009 40.4582ZM6.93571 33.9324V40.729H11.9101C14.3726 40.729 15.8009 39.4731 15.8009 37.3307C15.8009 35.1883 14.348 33.9324 11.9101 33.9324H6.93571ZM6.93571 41.9111V49.1017H12.1071C14.545 49.1017 16.0718 47.7227 16.0718 45.5064C16.0718 43.3147 14.545 41.9111 12.1071 41.9111H6.93571Z" fill="white"/>
<path fill-rule="evenodd" clip-rule="evenodd" d="M32.002 42.1819L36.2376 50.2838H34.6862L30.4999 42.2066H25.6733V50.2838H24.3435V32.7504H31.017C34.0706 32.7504 36.0406 34.5973 36.0406 37.4538C36.0406 38.7097 35.6712 39.7933 34.9817 40.6059C34.1691 41.5663 33.2087 41.9111 32.002 42.1819ZM25.6733 33.9324V41.0245H30.8446C33.2826 41.0245 34.7108 39.7194 34.7108 37.4785C34.7108 35.2375 33.2826 33.9324 30.8446 33.9324H25.6733Z" fill="white"/>
<path fill-rule="evenodd" clip-rule="evenodd" d="M54.4907 50.2838L48.0388 32.7504H46.8568L40.4049 50.2838H41.8332L43.36 46.0235H51.5357L53.0625 50.2838H54.4907ZM51.117 44.8415H43.7786L47.4478 34.5234L51.117 44.8415Z" fill="white"/>
<path d="M72.5551 32.7504V50.2838H71.2253L61.1042 35.0405V50.2838H59.7745V32.7504H61.1042L71.2253 47.9443V32.7504H72.5551Z" fill="white"/>
<path fill-rule="evenodd" clip-rule="evenodd" d="M80.1954 32.7504V50.2838H86.0809C87.9032 50.2838 89.4546 49.7174 90.4643 48.6831C92.1746 46.9259 92.1685 43.8536 92.1639 41.5021C92.1637 41.382 92.1634 41.2638 92.1634 41.1477C92.1634 41.0923 92.1635 41.0367 92.1635 40.9809L92.1636 40.8834V40.8804C92.1664 38.6271 92.1695 36.0562 90.4643 34.351C89.43 33.3167 87.8786 32.7504 86.0809 32.7504H80.1954ZM81.5252 49.1017V33.9324H85.7608C87.4107 33.9324 88.6666 34.4003 89.5285 35.2868C90.0703 35.8778 90.5135 36.7643 90.6366 37.6508C90.7598 38.5374 90.8336 39.744 90.8336 41.2708V42.5513C90.8336 45.1616 90.415 46.7869 89.5285 47.7473C88.6912 48.6338 87.3861 49.1017 85.7608 49.1017H81.5252Z" fill="white"/>
</svg>
