<svg width="121" height="51" viewBox="0 0 121 51" fill="none" xmlns="http://www.w3.org/2000/svg">
<path d="M98.6568 8.78244L95.0354 7.18902C93.8765 6.68202 93.5144 6.31988 93.5144 5.01618C93.5144 3.20547 94.1662 2.84333 95.7597 2.77091C95.7597 2.77091 96.7737 2.69848 97.4255 2.77091C97.4255 2.77091 99.0914 2.84333 99.5984 2.84333C99.7323 2.84333 99.8563 2.85324 99.9667 2.86206C100.155 2.87709 100.304 2.88898 100.395 2.84333C100.757 2.77091 100.902 2.69848 100.83 1.68448C100.757 0.742918 100.467 0.525634 99.8881 0.453206C99.5984 0.380778 98.6568 0.30835 98.5119 0.30835H95.8321C93.3695 0.30835 90.8345 0.887775 90.8345 5.01618C90.8345 7.62359 91.7761 8.49273 93.6592 9.36186L97.2807 10.9553C98.4395 11.4623 98.7292 11.9693 98.7292 13.4178C98.7292 15.301 97.6428 16.0252 95.0354 16.0252C93.5868 16.0252 92.5004 15.808 91.7761 15.6631C91.6625 15.6404 91.5631 15.6176 91.4735 15.5972C91.2776 15.5524 91.1285 15.5183 90.9794 15.5183C90.6173 15.5183 90.4724 15.5907 90.4724 16.6047C90.4724 17.5462 90.6897 17.7635 91.2691 17.9084C92.3555 18.1981 94.0214 18.4154 95.5424 18.4154C99.5984 18.4154 101.481 16.6771 101.481 13.2006C101.409 10.8104 100.685 9.65158 98.6568 8.78244Z" fill="white"/>
<path d="M47.9571 5.66803C48.0295 0.887779 46.1464 0.380782 42.1628 0.380782H36.8032C36.6583 0.380782 36.5134 0.45321 36.5134 0.598066V2.55363C36.5859 2.62605 36.6583 2.69848 36.7307 2.69848H42.1628C44.553 2.77091 45.1324 3.35033 45.1324 5.81289C45.1324 8.71001 44.4081 9.50672 41.511 9.50672H36.7307C36.5859 9.50672 36.441 9.65158 36.441 9.72401V17.9808C36.441 18.1257 36.5859 18.2705 36.6583 18.2705H38.9036C39.0484 18.2705 39.1933 18.1981 39.1933 18.0532V11.6796H41.3661C43.8287 11.6796 45.4221 11.245 46.4361 10.3759C47.5225 9.4343 47.9571 7.9133 47.9571 5.66803Z" fill="white"/>
<path d="M12.1776 15.8804C12.25 15.8804 12.3949 16.0252 12.3949 16.1701H12.3225V18.1257C12.3225 18.2705 12.1776 18.3429 12.0328 18.3429H1.82039C1.74796 18.3429 1.60311 18.1981 1.60311 18.0532V0.74292C1.60311 0.598064 1.74796 0.525636 1.89282 0.525636H11.8879C12.0328 0.525636 12.1052 0.670492 12.1052 0.815349V2.77091C12.1052 2.91576 11.9603 2.98819 11.8155 2.98819H4.4278V7.76845H10.2221C10.2945 7.76845 10.4393 7.9133 10.4393 8.05816V9.94129C10.4393 10.0861 10.2945 10.1586 10.1496 10.1586H4.4278V15.8804H12.1776Z" fill="white"/>
<path d="M118.43 16.1701C118.43 16.0252 118.285 15.8804 118.212 15.8804H110.463V10.1586H116.184C116.329 10.1586 116.474 10.0861 116.474 9.94129V8.05816C116.474 7.9133 116.329 7.76845 116.257 7.76845H110.463V2.98819H117.85C117.995 2.98819 118.14 2.91576 118.14 2.77091V0.815349C118.14 0.670492 117.995 0.525636 117.923 0.525636H108.072C107.928 0.525636 107.783 0.598064 107.783 0.74292V18.0532C107.783 18.1981 107.928 18.3429 108 18.3429H118.212C118.357 18.3429 118.502 18.2705 118.502 18.1257V16.1701H118.43Z" fill="white"/>
<path d="M84.0987 0.887777C84.0987 0.74292 83.9539 0.598064 83.8814 0.598064H81.6362C81.4913 0.598064 81.3465 0.670492 81.3465 0.815349V13.78H81.0567L75.4074 1.39477C75.4074 1.35856 75.3893 1.32235 75.3711 1.28613C75.353 1.24992 75.3349 1.2137 75.3349 1.17749C75.1176 0.670492 75.0452 0.598064 74.1761 0.525636H71.9308C71.786 0.525636 71.6411 0.598064 71.6411 0.74292V17.9084C71.6411 18.0532 71.786 18.1981 71.8584 18.1981H74.1037C74.2485 18.1981 74.3934 18.1257 74.3934 17.9808V5.08861H74.6831L80.4773 17.4738C80.767 18.0532 80.9843 18.1981 81.4913 18.2705H83.809C83.9539 18.2705 84.0987 18.1981 84.0987 18.0532V0.887777Z" fill="white"/>
<path d="M30.6468 0.74292C30.7192 0.887777 30.7192 1.10506 30.6468 1.24992C30.6082 1.28852 28.6769 4.51587 26.4318 8.26765L26.4308 8.26933L26.4302 8.27037C24.4631 11.5575 22.2555 15.2466 20.869 17.5462C20.7965 17.7635 20.7241 17.836 20.7241 17.836L20.5068 18.1981C20.4344 18.2705 20.362 18.3429 20.2896 18.3429H17.8994C17.7546 18.3429 17.6097 18.2705 17.5373 18.1257C17.4649 17.9808 17.4649 17.7635 17.5373 17.6187C17.58 17.6187 17.6228 17.543 17.7251 17.3618C17.7961 17.236 17.8959 17.0594 18.0443 16.822V16.7495C18.1167 16.7495 18.1167 16.6771 18.1167 16.6771L22.7521 9.14458L18.4788 2.19148C18.3682 2.08082 18.2997 1.92776 18.2413 1.79715C18.2233 1.75683 18.2062 1.71864 18.1891 1.68449C17.9719 1.32235 17.8994 1.24992 17.8994 1.24992C17.827 1.10506 17.827 0.887777 17.8994 0.74292C17.9719 0.598064 18.1167 0.525636 18.2616 0.525636H20.6517C20.7241 0.525636 20.7965 0.598064 20.869 0.670492L21.0863 1.03263C21.1587 1.10506 21.2311 1.17749 21.376 1.17749L24.3455 6.46474H24.4904L27.2427 1.61206L27.3151 1.4672C27.3875 1.32235 27.4599 1.17749 27.5324 1.10506V1.03263L27.7496 0.670492C27.8221 0.598064 27.8945 0.525636 27.9669 0.525636H30.2846C30.4295 0.525636 30.5743 0.598064 30.6468 0.74292Z" fill="white"/>
<path d="M28.3291 18.2705C28.1842 18.2705 28.1118 18.2705 28.1118 18.1257L27.8945 17.7635C27.8945 17.7635 27.1702 16.4598 26.953 16.0977L25.2871 13.2006L26.8081 10.738L30.0674 16.0253C30.5019 16.7495 31.0089 17.5462 31.0089 17.5462C31.0814 17.6911 31.0814 17.9084 31.0089 18.0532C30.9365 18.1981 30.7916 18.2705 30.6468 18.2705H28.3291Z" fill="white"/>
<path d="M66.1561 18.0663C66.1471 18.0809 66.1366 18.098 66.1366 18.1257C66.1366 18.1981 66.0641 18.2705 65.9193 18.3429H56.7933C56.7209 18.3429 56.576 18.1981 56.576 18.0532V17.9808L56.7933 17.0392V16.7495L57.083 15.7355C57.083 15.6631 57.1555 15.5907 57.2279 15.5907H62.66L61.3563 10.9553L59.111 2.77091H58.6765L56.4312 10.9553L54.4756 18.0532C54.4756 18.1257 54.4032 18.1981 54.3308 18.1981H51.7958C51.7234 18.1981 51.6509 18.1257 51.5785 18.0532V17.9084L51.7958 17.1117C51.7958 17.0817 51.8082 17.0517 51.8228 17.0165C51.8434 16.9668 51.8682 16.9068 51.8682 16.822L55.9242 2.77091L56.5036 0.887777L56.576 0.670492C56.576 0.598064 56.6485 0.525636 56.7933 0.525636H60.9942C61.0666 0.525636 61.2114 0.598064 61.2114 0.74292L61.3563 1.17749C61.3563 1.17749 61.4287 1.32235 61.5012 1.61206C61.7909 2.62605 62.5876 5.45075 63.167 7.55116L66.1366 17.7635V17.9808C66.1813 18.0256 66.1707 18.0427 66.1561 18.0663Z" fill="white"/>
<path d="M10.9594 48.2398L10.0729 47.3533C8.84161 48.5353 7.80734 49.2495 6.05892 49.2495C4.72914 49.2495 3.57174 48.7816 2.68522 47.8951C1.6017 46.8116 1.33082 45.6541 1.33082 42.2558V41.5171C1.33082 38.6359 1.42932 38.0202 1.55245 37.3061C1.8972 35.1637 4.015 33.7846 6.05892 33.7846C7.80734 33.7846 8.84161 34.4988 10.0729 35.6808L10.9594 34.7943C9.5065 33.4645 8.10285 32.6026 6.0343 32.6026C4.35976 32.6026 2.78372 33.2429 1.62632 34.4003C-0.00699241 36.0336 -0.00428378 37.8217 0.000499861 40.9795C0.00076484 41.1544 0.00103618 41.3335 0.00103618 41.5171C0.00103618 45.5064 0.124164 47.2056 1.62632 48.6338C2.80835 49.7666 4.35976 50.4315 6.05892 50.4315C8.17672 50.4315 9.43262 49.6189 10.9594 48.2398Z" fill="white"/>
<path fill-rule="evenodd" clip-rule="evenodd" d="M22.5101 32.7504H21.3281L14.8762 50.2838H16.3045L17.8313 46.0235H26.007L27.5338 50.2838H28.962L22.5101 32.7504ZM25.5883 44.8415H18.2499L21.9191 34.5234L25.5883 44.8415Z" fill="white"/>
<path fill-rule="evenodd" clip-rule="evenodd" d="M41.9043 42.1819L46.1399 50.2838H44.5885L40.4021 42.2066H35.5755V50.2838H34.2458V32.7504H40.9193C43.9729 32.7504 45.9429 34.5973 45.9429 37.4538C45.9429 38.7097 45.5735 39.7933 44.884 40.6059C44.0714 41.5663 43.111 41.9111 41.9043 42.1819ZM35.5755 33.9324V41.0245H40.7469C43.1848 41.0245 44.6131 39.7194 44.6131 37.4785C44.6131 35.2375 43.1848 33.9324 40.7469 33.9324H35.5755Z" fill="white"/>
<path d="M70.18 32.7504H68.7764L65.0825 47.9936L60.9947 32.7504H59.6157L55.5278 47.9936L51.834 32.7504H50.4303L54.8137 50.2838H56.1681L60.3052 35.0159L64.4423 50.2838H65.7967L70.18 32.7504Z" fill="white"/>
<path fill-rule="evenodd" clip-rule="evenodd" d="M79.4646 32.7504H80.6467L87.0985 50.2838H85.6703L84.1435 46.0235H75.9678L74.441 50.2838H73.0127L79.4646 32.7504ZM80.0556 34.5234L76.3864 44.8415H83.7249L80.0556 34.5234Z" fill="white"/>
<path d="M100.927 35.3607L101.789 34.4988C100.755 33.6369 100.262 33.3167 99.4498 33.0212C98.6864 32.7257 97.7753 32.6026 96.8641 32.6026C93.3919 32.6026 91.2988 34.4249 91.2988 37.4046C91.2988 39.8918 92.8502 41.4432 95.8052 41.9111L97.8491 42.2312C99.2774 42.4528 99.8192 42.6498 100.386 43.167C101.026 43.7334 101.346 44.5706 101.346 45.6049C101.346 47.9197 99.6468 49.2495 96.7164 49.2495C95.7067 49.2495 94.8941 49.1017 94.1553 48.8062C93.3427 48.4861 92.8748 48.1413 91.8651 47.1809L90.9294 48.1167C91.9883 49.1264 92.5054 49.4711 93.4165 49.8651C94.3277 50.2345 95.4358 50.4315 96.5686 50.4315C100.386 50.4315 102.676 48.6092 102.676 45.6049C102.676 44.2012 102.159 43.0192 101.149 42.1819C100.41 41.5663 99.6468 41.2708 98.0215 41.0245L96.1254 40.729C95.1157 40.5813 94.1799 40.1873 93.515 39.6455C92.924 39.153 92.6039 38.365 92.6039 37.3553C92.6039 35.0898 94.1553 33.7354 96.741 33.7354C97.5536 33.7354 98.3417 33.8585 98.9819 34.1048C99.6714 34.3756 100.065 34.6219 100.927 35.3607Z" fill="white"/>
<path d="M119.518 32.7504H120.847V50.2838H119.518V42.0342H110.381V50.2838H109.052V32.7504H110.381V40.8522H119.518V32.7504Z" fill="white"/>
</svg>
