<svg width="117" height="51" viewBox="0 0 117 51" fill="none" xmlns="http://www.w3.org/2000/svg">
<path d="M97.0537 8.78244L93.4323 7.18902C92.2734 6.68202 91.9113 6.31988 91.9113 5.01618C91.9113 3.20547 92.5631 2.84333 94.1566 2.77091C94.1566 2.77091 95.1706 2.69848 95.8224 2.77091C95.8224 2.77091 97.4883 2.84333 97.9953 2.84333C98.1292 2.84333 98.2532 2.85324 98.3636 2.86206C98.5519 2.87709 98.7007 2.88898 98.792 2.84333C99.1541 2.77091 99.299 2.69848 99.2265 1.68448C99.1541 0.742918 98.8644 0.525634 98.285 0.453206C97.9953 0.380778 97.0537 0.30835 96.9088 0.30835H94.229C91.7664 0.30835 89.2314 0.887775 89.2314 5.01618C89.2314 7.62359 90.173 8.49273 92.0561 9.36186L95.6776 10.9553C96.8364 11.4623 97.1261 11.9693 97.1261 13.4178C97.1261 15.301 96.0397 16.0252 93.4323 16.0252C91.9837 16.0252 90.8973 15.808 90.173 15.6631C90.0594 15.6404 89.96 15.6176 89.8704 15.5972C89.6745 15.5524 89.5254 15.5183 89.3763 15.5183C89.0142 15.5183 88.8693 15.5907 88.8693 16.6047C88.8693 17.5462 89.0866 17.7635 89.666 17.9084C90.7524 18.1981 92.4183 18.4154 93.9393 18.4154C97.9953 18.4154 99.8784 16.6771 99.8784 13.2006C99.8059 10.8104 99.0817 9.65158 97.0537 8.78244Z" fill="white"/>
<path d="M46.354 5.66803C46.4264 0.887779 44.5433 0.380782 40.5597 0.380782H35.2C35.0552 0.380782 34.9103 0.45321 34.9103 0.598066V2.55363C34.9828 2.62605 35.0552 2.69848 35.1276 2.69848H40.5597C42.9499 2.77091 43.5293 3.35033 43.5293 5.81289C43.5293 8.71001 42.805 9.50672 39.9079 9.50672H35.1276C34.9828 9.50672 34.8379 9.65158 34.8379 9.72401V17.9808C34.8379 18.1257 34.9828 18.2705 35.0552 18.2705H37.3005C37.4453 18.2705 37.5902 18.1981 37.5902 18.0532V11.6796H39.763C42.2256 11.6796 43.819 11.245 44.833 10.3759C45.9194 9.4343 46.354 7.91331 46.354 5.66803Z" fill="white"/>
<path d="M10.5745 15.8804C10.6469 15.8804 10.7918 16.0252 10.7918 16.1701H10.7194V18.1257C10.7194 18.2705 10.5745 18.3429 10.4296 18.3429H0.217284C0.144856 18.3429 0 18.1981 0 18.0532V0.74292C0 0.598064 0.144856 0.525636 0.289712 0.525636H10.2848C10.4296 0.525636 10.5021 0.670492 10.5021 0.815349V2.77091C10.5021 2.91576 10.3572 2.98819 10.2124 2.98819H2.8247V7.76845H8.61895C8.69137 7.76845 8.83623 7.9133 8.83623 8.05816V9.94129C8.83623 10.0861 8.69137 10.1586 8.54652 10.1586H2.8247V15.8804H10.5745Z" fill="white"/>
<path d="M116.827 16.1701C116.827 16.0252 116.682 15.8804 116.609 15.8804H108.859V10.1586H114.581C114.726 10.1586 114.871 10.0861 114.871 9.94129V8.05816C114.871 7.9133 114.726 7.76845 114.654 7.76845H108.859V2.98819H116.247C116.392 2.98819 116.537 2.91576 116.537 2.77091V0.815349C116.537 0.670492 116.392 0.525636 116.32 0.525636H106.469C106.324 0.525636 106.18 0.598064 106.18 0.74292V18.0532C106.18 18.1981 106.324 18.3429 106.397 18.3429H116.609C116.754 18.3429 116.899 18.2705 116.899 18.1257V16.1701H116.827Z" fill="white"/>
<path d="M82.4956 0.887777C82.4956 0.74292 82.3508 0.598064 82.2783 0.598064H80.0331C79.8882 0.598064 79.7434 0.670492 79.7434 0.815349V13.78H79.4536L73.8043 1.39477C73.8043 1.35856 73.7862 1.32235 73.768 1.28613C73.7499 1.24992 73.7318 1.2137 73.7318 1.17749C73.5145 0.670492 73.4421 0.598064 72.573 0.525636H70.3277C70.1829 0.525636 70.038 0.598064 70.038 0.74292V17.9084C70.038 18.0532 70.1829 18.1981 70.2553 18.1981H72.5006C72.6454 18.1981 72.7903 18.1257 72.7903 17.9808V5.08861H73.08L78.8742 17.4738C79.1639 18.0532 79.3812 18.1981 79.8882 18.2705H82.2059C82.3508 18.2705 82.4956 18.1981 82.4956 18.0532V0.887777Z" fill="white"/>
<path d="M29.0437 0.74292C29.1161 0.887777 29.1161 1.10506 29.0437 1.24992C29.0051 1.28852 27.0738 4.51587 24.8287 8.26765L24.8277 8.26933L24.8271 8.27037C22.86 11.5575 20.6524 15.2466 19.2659 17.5462C19.1934 17.7635 19.121 17.836 19.121 17.836L18.9037 18.1981C18.8313 18.2705 18.7589 18.3429 18.6864 18.3429H16.2963C16.1515 18.3429 16.0066 18.2705 15.9342 18.1257C15.8617 17.9808 15.8617 17.7635 15.9342 17.6187C15.9769 17.6187 16.0197 17.543 16.122 17.3618C16.193 17.236 16.2928 17.0594 16.4412 16.822V16.7495C16.5136 16.7495 16.5136 16.6771 16.5136 16.6771L21.149 9.14458L16.8757 2.19148C16.7651 2.08082 16.6966 1.92776 16.6382 1.79715C16.6202 1.75683 16.6031 1.71864 16.586 1.68449C16.3687 1.32235 16.2963 1.24992 16.2963 1.24992C16.2239 1.10506 16.2239 0.887777 16.2963 0.74292C16.3687 0.598064 16.5136 0.525636 16.6585 0.525636H19.0486C19.121 0.525636 19.1934 0.598064 19.2659 0.670492L19.4832 1.03263C19.5556 1.10506 19.628 1.17749 19.7729 1.17749L22.7424 6.46474H22.8873L25.6395 1.61206L25.712 1.4672C25.7844 1.32235 25.8568 1.17749 25.9293 1.10506V1.03263L26.1465 0.670492C26.219 0.598064 26.2914 0.525636 26.3638 0.525636H28.6815C28.8264 0.525636 28.9712 0.598064 29.0437 0.74292Z" fill="white"/>
<path d="M26.726 18.2705C26.5811 18.2705 26.5087 18.2705 26.5087 18.1257L26.2914 17.7635C26.2914 17.7635 25.5671 16.4598 25.3498 16.0977L23.684 13.2006L25.205 10.738L28.4643 16.0253C28.8988 16.7495 29.4058 17.5462 29.4058 17.5462C29.4782 17.6911 29.4782 17.9084 29.4058 18.0532C29.3334 18.1981 29.1885 18.2705 29.0437 18.2705H26.726Z" fill="white"/>
<path d="M64.553 18.0663C64.544 18.0809 64.5334 18.098 64.5334 18.1257C64.5334 18.1981 64.461 18.2705 64.3162 18.3429H55.1902C55.1178 18.3429 54.9729 18.1981 54.9729 18.0532V17.9808L55.1902 17.0392V16.7495L55.4799 15.7355C55.4799 15.6631 55.5524 15.5907 55.6248 15.5907H61.0569L59.7532 10.9553L57.5079 2.77091H57.0734L54.8281 10.9553L52.8725 18.0532C52.8725 18.1257 52.8001 18.1981 52.7277 18.1981H50.1927C50.1203 18.1981 50.0478 18.1257 49.9754 18.0532V17.9084L50.1927 17.1117C50.1927 17.0817 50.2051 17.0517 50.2197 17.0165C50.2403 16.9668 50.2651 16.9068 50.2651 16.822L54.3211 2.77091L54.9005 0.887777L54.9729 0.670492C54.9729 0.598064 55.0454 0.525636 55.1902 0.525636H59.3911C59.4635 0.525636 59.6083 0.598064 59.6083 0.74292L59.7532 1.17749C59.7532 1.17749 59.8256 1.32235 59.898 1.61206C60.1878 2.62605 60.9845 5.45075 61.5639 7.55116L64.5334 17.7635V17.9808C64.5782 18.0256 64.5676 18.0427 64.553 18.0663Z" fill="white"/>
<path d="M33.8196 47.3533L34.7061 48.2398C33.1794 49.6189 31.9235 50.4315 29.8057 50.4315C28.1065 50.4315 26.5551 49.7666 25.3731 48.6338C23.8709 47.2056 23.7478 45.5064 23.7478 41.5171C23.7478 41.3335 23.7475 41.1544 23.7472 40.9795C23.7424 37.8217 23.7397 36.0336 25.3731 34.4003C26.5305 33.2429 28.1065 32.6026 29.781 32.6026C31.8496 32.6026 33.2532 33.4645 34.7061 34.7943L33.8196 35.6808C32.5883 34.4988 31.5541 33.7846 29.8057 33.7846C27.7617 33.7846 25.6439 35.1637 25.2992 37.3061C25.176 38.0202 25.0775 38.6359 25.0775 41.5171V42.2558C25.0775 45.6541 25.3484 46.8116 26.432 47.8951C27.3185 48.7816 28.4759 49.2495 29.8057 49.2495C31.5541 49.2495 32.5883 48.5353 33.8196 47.3533Z" fill="white"/>
<path d="M51.9613 49.1017V50.2838H41.3231V32.7504H42.6529V49.1017H51.9613Z" fill="white"/>
<path d="M68.4168 44.5953V32.7504H67.087V44.4229C67.087 47.3287 65.2155 49.2495 62.4082 49.2495C59.6008 49.2495 57.7293 47.3287 57.7293 44.4229V32.7504H56.3995V44.5953C56.3995 48.0182 58.8867 50.4315 62.4082 50.4315C65.9296 50.4315 68.4168 48.0182 68.4168 44.5953Z" fill="white"/>
<path fill-rule="evenodd" clip-rule="evenodd" d="M86.0112 40.4582C85.6172 40.8029 85.3463 40.9753 84.6075 41.2708C85.4694 41.6156 85.7896 41.8126 86.2328 42.2066C87.144 43.0438 87.6118 44.1766 87.6118 45.5556C87.6118 48.5107 85.6911 50.2838 82.4651 50.2838H75.8162V32.7504H82.2681C85.297 32.7504 87.341 34.5726 87.341 37.2815C87.341 38.562 86.8731 39.6455 86.0112 40.4582ZM77.146 33.9324V40.729H82.1203C84.5829 40.729 86.0112 39.4731 86.0112 37.3307C86.0112 35.1883 84.5583 33.9324 82.1203 33.9324H77.146ZM77.146 41.9111V49.1017H82.3174C84.7553 49.1017 86.2821 47.7227 86.2821 45.5064C86.2821 43.3147 84.7553 41.9111 82.3174 41.9111H77.146Z" fill="white"/>
</svg>
