<svg width="142" height="22" viewBox="0 0 142 22" fill="none" xmlns="http://www.w3.org/2000/svg">
<path d="M117.611 10.269L113.223 8.3381C111.818 7.72371 111.379 7.28486 111.379 5.70501C111.379 3.51078 112.169 3.07193 114.1 2.98416C114.1 2.98416 115.329 2.89639 116.119 2.98416C116.119 2.98416 118.138 3.07193 118.752 3.07193C118.914 3.07193 119.065 3.08393 119.198 3.09462C119.427 3.11284 119.607 3.12724 119.718 3.07193C120.156 2.98416 120.332 2.89639 120.244 1.66762C120.156 0.526617 119.805 0.263308 119.103 0.175539C118.752 0.0877694 117.611 0 117.436 0H114.188C111.204 0 108.132 0.702156 108.132 5.70501C108.132 8.86471 109.273 9.91794 111.555 10.9712L115.943 12.9021C117.348 13.5165 117.699 14.1309 117.699 15.8863C117.699 18.1683 116.382 19.046 113.223 19.046C111.467 19.046 110.151 18.7827 109.273 18.6071C109.135 18.5796 109.015 18.552 108.906 18.5272C108.669 18.4729 108.488 18.4316 108.307 18.4316C107.869 18.4316 107.693 18.5194 107.693 19.7481C107.693 20.8891 107.956 21.1524 108.659 21.328C109.975 21.679 111.994 21.9424 113.837 21.9424C118.752 21.9424 121.034 19.8359 121.034 15.623C120.946 12.7266 120.069 11.3223 117.611 10.269Z" fill="white"/>
<path d="M56.1724 6.49494C56.2602 0.702161 53.9782 0.0877748 49.1509 0.0877748H42.6559C42.4804 0.0877748 42.3048 0.175544 42.3048 0.351083V2.72086C42.3926 2.80863 42.4804 2.8964 42.5681 2.8964H49.1509C52.0472 2.98417 52.7494 3.68632 52.7494 6.67048C52.7494 10.1813 51.8717 11.1467 48.3609 11.1467H42.5681C42.3926 11.1467 42.2171 11.3223 42.2171 11.41V21.4157C42.2171 21.5913 42.3926 21.7668 42.4804 21.7668H45.2012C45.3768 21.7668 45.5523 21.6791 45.5523 21.5035V13.7798H48.1854C51.1696 13.7798 53.1005 13.2532 54.3293 12.2C55.6458 11.059 56.1724 9.21579 56.1724 6.49494Z" fill="white"/>
<path d="M12.8143 18.8704C12.9021 18.8704 13.0776 19.046 13.0776 19.2215H12.9899V21.5913C12.9899 21.7668 12.8143 21.8546 12.6388 21.8546H0.263308C0.175539 21.8546 0 21.6791 0 21.5035V0.526619C0 0.35108 0.175539 0.263311 0.351078 0.263311H12.4633C12.6388 0.263311 12.7266 0.43885 12.7266 0.614389V2.98416C12.7266 3.1597 12.551 3.24747 12.3755 3.24747H3.42301V9.04025H10.4446C10.5323 9.04025 10.7079 9.21579 10.7079 9.39133V11.6733C10.7079 11.8489 10.5323 11.9366 10.3568 11.9366H3.42301V18.8704H12.8143Z" fill="white"/>
<path d="M141.572 19.2215C141.572 19.046 141.397 18.8704 141.309 18.8704H131.917V11.9366H138.851C139.027 11.9366 139.202 11.8489 139.202 11.6733V9.39133C139.202 9.21579 139.027 9.04025 138.939 9.04025H131.917V3.24747H140.87C141.045 3.24747 141.221 3.1597 141.221 2.98416V0.614389C141.221 0.43885 141.045 0.263311 140.958 0.263311H129.021C128.846 0.263311 128.67 0.35108 128.67 0.526619V21.5035C128.67 21.6791 128.846 21.8546 128.933 21.8546H141.309C141.484 21.8546 141.66 21.7668 141.66 21.5913V19.2215H141.572Z" fill="white"/>
<path d="M99.9694 0.702158C99.9694 0.526619 99.7938 0.35108 99.7061 0.35108H96.9852C96.8097 0.35108 96.6341 0.43885 96.6341 0.614389V16.3251H96.2831L89.4371 1.31654C89.4371 1.27266 89.4151 1.22877 89.3932 1.18489C89.3712 1.14101 89.3493 1.09712 89.3493 1.05324C89.086 0.43885 88.9982 0.35108 87.945 0.263311H85.2241C85.0486 0.263311 84.873 0.35108 84.873 0.526619V21.328C84.873 21.5035 85.0486 21.6791 85.1364 21.6791H87.8572C88.0327 21.6791 88.2083 21.5913 88.2083 21.4157V5.79278H88.5594L95.5809 20.8014C95.932 21.5035 96.1953 21.6791 96.8097 21.7668H99.6183C99.7938 21.7668 99.9694 21.6791 99.9694 21.5035V0.702158Z" fill="white"/>
<path d="M35.1955 0.526619C35.2833 0.702158 35.2833 0.965466 35.1955 1.14101C35.1488 1.18778 32.8084 5.09873 30.0878 9.6452L30.0865 9.64723L30.0858 9.64849C27.7021 13.6319 25.0269 18.1024 23.3467 20.8891C23.2589 21.1524 23.1711 21.2402 23.1711 21.2402L22.9078 21.6791C22.82 21.7668 22.7323 21.8546 22.6445 21.8546H19.7481C19.5726 21.8546 19.397 21.7668 19.3093 21.5913C19.2215 21.4157 19.2215 21.1524 19.3093 20.9769C19.3611 20.9769 19.4129 20.8852 19.5369 20.6656C19.6229 20.5132 19.7438 20.2992 19.9237 20.0114V19.9237C20.0114 19.9237 20.0114 19.8359 20.0114 19.8359L25.6287 10.7079L20.4503 2.28201C20.3162 2.14791 20.2332 1.96243 20.1624 1.80414C20.1406 1.75529 20.1199 1.70902 20.0992 1.66762C19.8359 1.22877 19.7481 1.14101 19.7481 1.14101C19.6603 0.965466 19.6603 0.702158 19.7481 0.526619C19.8359 0.35108 20.0114 0.263311 20.187 0.263311H23.0833C23.1711 0.263311 23.2589 0.35108 23.3467 0.43885L23.61 0.877697C23.6977 0.965466 23.7855 1.05324 23.961 1.05324L27.5596 7.4604H27.7351L31.0704 1.57985L31.1581 1.40431C31.2459 1.22877 31.3337 1.05324 31.4214 0.965466V0.877697L31.6848 0.43885C31.7725 0.35108 31.8603 0.263311 31.9481 0.263311H34.7567C34.9322 0.263311 35.1078 0.35108 35.1955 0.526619Z" fill="white"/>
<path d="M32.3869 21.7668C32.2114 21.7668 32.1236 21.7668 32.1236 21.5913L31.8603 21.1524C31.8603 21.1524 30.9826 19.5726 30.7193 19.1337L28.7006 15.623L30.5438 12.6388L34.4934 19.046C35.02 19.9237 35.6344 20.8891 35.6344 20.8891C35.7222 21.0647 35.7222 21.328 35.6344 21.5035C35.5466 21.6791 35.3711 21.7668 35.1955 21.7668H32.3869Z" fill="white"/>
<path d="M78.2263 21.5193C78.2154 21.537 78.2026 21.5578 78.2026 21.5913C78.2026 21.6791 78.1148 21.7668 77.9393 21.8546H66.8803C66.7925 21.8546 66.617 21.6791 66.617 21.5035V21.4157L66.8803 20.2747V19.9237L67.2314 18.6949C67.2314 18.6071 67.3192 18.5194 67.4069 18.5194H73.9896L72.4098 12.9021L69.6889 2.98416H69.1623L66.4415 12.9021L64.0717 21.5035C64.0717 21.5913 63.9839 21.6791 63.8961 21.6791H60.8242C60.7364 21.6791 60.6487 21.5913 60.5609 21.5035V21.328L60.8242 20.3625C60.8242 20.3262 60.8393 20.2898 60.8569 20.2472C60.8819 20.187 60.912 20.1143 60.912 20.0114L65.8271 2.98416L66.5292 0.702158L66.617 0.43885C66.617 0.35108 66.7048 0.263311 66.8803 0.263311H71.9709C72.0587 0.263311 72.2342 0.35108 72.2342 0.526619L72.4098 1.05324C72.4098 1.05324 72.4975 1.22877 72.5853 1.57985C72.9364 2.80862 73.9019 6.23163 74.604 8.77695L78.2026 21.1524V21.4157C78.2568 21.47 78.244 21.4907 78.2263 21.5193Z" fill="white"/>
</svg>
