<svg width="117" height="51" viewBox="0 0 117 51" fill="none" xmlns="http://www.w3.org/2000/svg">
<path d="M97.0537 8.78244L93.4323 7.18902C92.2734 6.68202 91.9113 6.31988 91.9113 5.01618C91.9113 3.20547 92.5631 2.84333 94.1566 2.77091C94.1566 2.77091 95.1706 2.69848 95.8224 2.77091C95.8224 2.77091 97.4883 2.84333 97.9952 2.84333C98.1292 2.84333 98.2532 2.85324 98.3636 2.86206C98.5519 2.87709 98.7007 2.88898 98.792 2.84333C99.1541 2.77091 99.299 2.69848 99.2265 1.68448C99.1541 0.742918 98.8644 0.525634 98.285 0.453206C97.9952 0.380778 97.0537 0.30835 96.9088 0.30835H94.229C91.7664 0.30835 89.2314 0.887775 89.2314 5.01618C89.2314 7.62359 90.173 8.49273 92.0561 9.36186L95.6776 10.9553C96.8364 11.4623 97.1261 11.9693 97.1261 13.4178C97.1261 15.301 96.0397 16.0252 93.4323 16.0252C91.9837 16.0252 90.8973 15.808 90.173 15.6631C90.0593 15.6404 89.96 15.6176 89.8704 15.5972C89.6745 15.5524 89.5254 15.5183 89.3763 15.5183C89.0142 15.5183 88.8693 15.5907 88.8693 16.6047C88.8693 17.5462 89.0866 17.7635 89.666 17.9084C90.7524 18.1981 92.4183 18.4154 93.9393 18.4154C97.9952 18.4154 99.8784 16.6771 99.8784 13.2006C99.8059 10.8104 99.0817 9.65158 97.0537 8.78244Z" fill="white"/>
<path d="M46.354 5.66803C46.4264 0.887779 44.5433 0.380782 40.5597 0.380782H35.2C35.0552 0.380782 34.9103 0.45321 34.9103 0.598066V2.55363C34.9828 2.62605 35.0552 2.69848 35.1276 2.69848H40.5597C42.9499 2.77091 43.5293 3.35033 43.5293 5.81289C43.5293 8.71001 42.805 9.50672 39.9079 9.50672H35.1276C34.9828 9.50672 34.8379 9.65158 34.8379 9.72401V17.9808C34.8379 18.1257 34.9828 18.2705 35.0552 18.2705H37.3005C37.4453 18.2705 37.5902 18.1981 37.5902 18.0532V11.6796H39.763C42.2256 11.6796 43.819 11.245 44.833 10.3759C45.9194 9.4343 46.354 7.9133 46.354 5.66803Z" fill="white"/>
<path d="M10.5745 15.8804C10.6469 15.8804 10.7918 16.0252 10.7918 16.1701H10.7194V18.1257C10.7194 18.2705 10.5745 18.3429 10.4296 18.3429H0.217284C0.144856 18.3429 0 18.1981 0 18.0532V0.74292C0 0.598064 0.144856 0.525636 0.289712 0.525636H10.2848C10.4296 0.525636 10.5021 0.670492 10.5021 0.815349V2.77091C10.5021 2.91576 10.3572 2.98819 10.2124 2.98819H2.8247V7.76845H8.61895C8.69137 7.76845 8.83623 7.9133 8.83623 8.05816V9.94129C8.83623 10.0861 8.69137 10.1586 8.54652 10.1586H2.8247V15.8804H10.5745Z" fill="white"/>
<path d="M116.827 16.1701C116.827 16.0252 116.682 15.8804 116.609 15.8804H108.859V10.1586H114.581C114.726 10.1586 114.871 10.0861 114.871 9.94129V8.05816C114.871 7.9133 114.726 7.76845 114.654 7.76845H108.859V2.98819H116.247C116.392 2.98819 116.537 2.91576 116.537 2.77091V0.815349C116.537 0.670492 116.392 0.525636 116.32 0.525636H106.469C106.324 0.525636 106.18 0.598064 106.18 0.74292V18.0532C106.18 18.1981 106.324 18.3429 106.397 18.3429H116.609C116.754 18.3429 116.899 18.2705 116.899 18.1257V16.1701H116.827Z" fill="white"/>
<path d="M82.4956 0.887777C82.4956 0.74292 82.3508 0.598064 82.2783 0.598064H80.0331C79.8882 0.598064 79.7434 0.670492 79.7434 0.815349V13.78H79.4537L73.8043 1.39477C73.8043 1.35856 73.7861 1.32235 73.768 1.28613C73.7499 1.24992 73.7318 1.2137 73.7318 1.17749C73.5145 0.670492 73.4421 0.598064 72.573 0.525636H70.3277C70.1829 0.525636 70.038 0.598064 70.038 0.74292V17.9084C70.038 18.0532 70.1829 18.1981 70.2553 18.1981H72.5005C72.6454 18.1981 72.7903 18.1257 72.7903 17.9808V5.08861H73.08L78.8742 17.4738C79.1639 18.0532 79.3812 18.1981 79.8882 18.2705H82.2059C82.3508 18.2705 82.4956 18.1981 82.4956 18.0532V0.887777Z" fill="white"/>
<path d="M29.0437 0.74292C29.1161 0.887777 29.1161 1.10506 29.0437 1.24992C29.0051 1.28852 27.0738 4.51587 24.8287 8.26765L24.8277 8.26933L24.8271 8.27037C22.86 11.5575 20.6524 15.2466 19.2659 17.5462C19.1934 17.7635 19.121 17.836 19.121 17.836L18.9037 18.1981C18.8313 18.2705 18.7589 18.3429 18.6864 18.3429H16.2963C16.1515 18.3429 16.0066 18.2705 15.9342 18.1257C15.8617 17.9808 15.8617 17.7635 15.9342 17.6187C15.9769 17.6187 16.0197 17.543 16.122 17.3618C16.193 17.236 16.2928 17.0594 16.4412 16.822V16.7495C16.5136 16.7495 16.5136 16.6771 16.5136 16.6771L21.149 9.14458L16.8757 2.19148C16.7651 2.08082 16.6966 1.92776 16.6382 1.79715C16.6202 1.75683 16.6031 1.71864 16.586 1.68449C16.3687 1.32235 16.2963 1.24992 16.2963 1.24992C16.2239 1.10506 16.2239 0.887777 16.2963 0.74292C16.3687 0.598064 16.5136 0.525636 16.6585 0.525636H19.0486C19.121 0.525636 19.1934 0.598064 19.2659 0.670492L19.4832 1.03263C19.5556 1.10506 19.628 1.17749 19.7729 1.17749L22.7424 6.46474H22.8873L25.6395 1.61206L25.712 1.4672C25.7844 1.32235 25.8568 1.17749 25.9293 1.10506V1.03263L26.1465 0.670492C26.219 0.598064 26.2914 0.525636 26.3638 0.525636H28.6815C28.8264 0.525636 28.9712 0.598064 29.0437 0.74292Z" fill="white"/>
<path d="M26.726 18.2705C26.5811 18.2705 26.5087 18.2705 26.5087 18.1257L26.2914 17.7635C26.2914 17.7635 25.5671 16.4598 25.3498 16.0977L23.684 13.2006L25.205 10.738L28.4643 16.0253C28.8988 16.7495 29.4058 17.5462 29.4058 17.5462C29.4782 17.6911 29.4782 17.9084 29.4058 18.0532C29.3334 18.1981 29.1885 18.2705 29.0437 18.2705H26.726Z" fill="white"/>
<path d="M64.553 18.0663C64.544 18.0809 64.5334 18.098 64.5334 18.1257C64.5334 18.1981 64.461 18.2705 64.3162 18.3429H55.1902C55.1178 18.3429 54.9729 18.1981 54.9729 18.0532V17.9808L55.1902 17.0392V16.7495L55.4799 15.7355C55.4799 15.6631 55.5524 15.5907 55.6248 15.5907H61.0569L59.7532 10.9553L57.5079 2.77091H57.0734L54.8281 10.9553L52.8725 18.0532C52.8725 18.1257 52.8001 18.1981 52.7277 18.1981H50.1927C50.1203 18.1981 50.0478 18.1257 49.9754 18.0532V17.9084L50.1927 17.1117C50.1927 17.0817 50.2051 17.0517 50.2197 17.0165C50.2403 16.9668 50.2651 16.9068 50.2651 16.822L54.3211 2.77091L54.9005 0.887777L54.9729 0.670492C54.9729 0.598064 55.0454 0.525636 55.1902 0.525636H59.3911C59.4635 0.525636 59.6083 0.598064 59.6083 0.74292L59.7532 1.17749C59.7532 1.17749 59.8256 1.32235 59.898 1.61206C60.1878 2.62605 60.9845 5.45075 61.5639 7.55116L64.5334 17.7635V17.9808C64.5782 18.0256 64.5676 18.0427 64.553 18.0663Z" fill="white"/>
<path d="M10.7223 35.3607L11.5842 34.4988C10.5499 33.6369 10.0574 33.3167 9.24472 33.0212C8.48133 32.7257 7.57019 32.6026 6.65904 32.6026C3.18684 32.6026 1.09366 34.4249 1.09366 37.4046C1.09366 39.8918 2.64508 41.4432 5.60014 41.9111L7.64406 42.2312C9.07235 42.4528 9.61411 42.6498 10.1805 43.167C10.8208 43.7334 11.1409 44.5706 11.1409 45.6049C11.1409 47.9197 9.44173 49.2495 6.51129 49.2495C5.50164 49.2495 4.689 49.1017 3.95023 48.8062C3.13759 48.4861 2.6697 48.1413 1.66005 47.1809L0.724281 48.1167C1.78318 49.1264 2.30032 49.4711 3.21146 49.8651C4.12261 50.2345 5.23076 50.4315 6.36353 50.4315C10.1805 50.4315 12.4707 48.6092 12.4707 45.6049C12.4707 44.2012 11.9535 43.0192 10.9439 42.1819C10.2051 41.5663 9.44173 41.2708 7.81644 41.0245L5.92027 40.729C4.91063 40.5813 3.97485 40.1873 3.30996 39.6455C2.71895 39.153 2.39882 38.365 2.39882 37.3553C2.39882 35.0898 3.95023 33.7354 6.53591 33.7354C7.34856 33.7354 8.13657 33.8585 8.77684 34.1048C9.46636 34.3756 9.86036 34.6219 10.7223 35.3607Z" fill="white"/>
<path d="M27.5756 32.7504H26.1473L21.7886 41.6156L17.3313 32.7504H15.9031L21.0744 43.0192V50.2838H22.4042V43.0192L27.5756 32.7504Z" fill="white"/>
<path d="M42.1574 34.4988L41.2955 35.3607C40.4336 34.6219 40.0396 34.3756 39.35 34.1048C38.7098 33.8585 37.9218 33.7354 37.1091 33.7354C34.5234 33.7354 32.972 35.0898 32.972 37.3553C32.972 38.365 33.2922 39.153 33.8832 39.6455C34.5481 40.1873 35.4838 40.5813 36.4935 40.729L38.3896 41.0245C40.0149 41.2708 40.7783 41.5663 41.5171 42.1819C42.5267 43.0192 43.0439 44.2012 43.0439 45.6049C43.0439 48.6092 40.7537 50.4315 36.9367 50.4315C35.804 50.4315 34.6958 50.2345 33.7847 49.8651C32.8735 49.4711 32.3564 49.1264 31.2975 48.1167L32.2333 47.1809C33.2429 48.1413 33.7108 48.4861 34.5234 48.8062C35.2622 49.1017 36.0748 49.2495 37.0845 49.2495C40.0149 49.2495 41.7141 47.9197 41.7141 45.6049C41.7141 44.5706 41.394 43.7334 40.7537 43.167C40.1873 42.6498 39.6456 42.4528 38.2173 42.2312L36.1733 41.9111C33.2183 41.4432 31.6669 39.8918 31.6669 37.4046C31.6669 34.4249 33.76 32.6026 37.2322 32.6026C38.1434 32.6026 39.0545 32.7257 39.8179 33.0212C40.6306 33.3167 41.1231 33.6369 42.1574 34.4988Z" fill="white"/>
<path d="M59.2454 33.9324V32.7504H47.4497V33.9324H52.6704V50.2838H54.0001V33.9324H59.2454Z" fill="white"/>
<path d="M75.549 49.1017V50.2838H64.9108V32.7504H75.549V33.9324H66.2406V40.8522H74.17V42.0342H66.2406V49.1017H75.549Z" fill="white"/>
<path d="M96.5708 50.2838V32.7504H95.241L89.2816 46.2698L83.1745 32.7504H81.8447V50.2838H83.1745V35.8286L88.5921 47.8212H89.9219L95.241 35.8286V50.2838H96.5708Z" fill="white"/>
<path d="M113.621 34.4988L112.759 35.3607C111.897 34.6219 111.503 34.3756 110.813 34.1048C110.173 33.8585 109.385 33.7354 108.572 33.7354C105.987 33.7354 104.435 35.0898 104.435 37.3553C104.435 38.365 104.755 39.153 105.346 39.6455C106.011 40.1873 106.947 40.5813 107.957 40.729L109.853 41.0245C111.478 41.2708 112.242 41.5663 112.98 42.1819C113.99 43.0192 114.507 44.2012 114.507 45.6049C114.507 48.6092 112.217 50.4315 108.4 50.4315C107.267 50.4315 106.159 50.2345 105.248 49.8651C104.337 49.4711 103.82 49.1264 102.761 48.1167L103.696 47.1809C104.706 48.1413 105.174 48.4861 105.987 48.8062C106.725 49.1017 107.538 49.2495 108.548 49.2495C111.478 49.2495 113.177 47.9197 113.177 45.6049C113.177 44.5706 112.857 43.7334 112.217 43.167C111.651 42.6498 111.109 42.4528 109.68 42.2312L107.637 41.9111C104.681 41.4432 103.13 39.8918 103.13 37.4046C103.13 34.4249 105.223 32.6026 108.695 32.6026C109.607 32.6026 110.518 32.7257 111.281 33.0212C112.094 33.3167 112.586 33.6369 113.621 34.4988Z" fill="white"/>
</svg>
